<svg width="78" height="36" viewBox="0 0 78 36" fill="none" xmlns="http://www.w3.org/2000/svg">
<path d="M41.4623 18.2404C59.6354 18.2355 58.8455 21.075 62.3777 35.7796C62.449 36.0734 62.8895 36.0734 62.8596 35.7796C61.3891 21.075 59.6354 18.2355 77.8068 18.2306C78.1082 18.2306 78.0271 17.7595 77.7273 17.7595C59.5543 17.7644 60.3442 14.925 56.8119 0.220348C56.7407 -0.0734492 56.3002 -0.0734492 56.33 0.220348C57.8005 14.925 59.5542 17.7644 41.3828 17.7694C41.0814 17.7694 41.1626 18.2404 41.4623 18.2404Z" fill="#024A3E"/>
<path d="M20.6944 18.2404C38.8675 18.2355 38.0775 21.075 41.6098 35.7796C41.681 36.0734 42.1215 36.0734 42.0917 35.7796C40.6212 21.075 38.8675 18.2355 57.0389 18.2306C57.3403 18.2306 57.2591 17.7595 56.9594 17.7595C38.7863 17.7644 39.5762 14.925 36.044 0.220348C35.9727 -0.0734492 35.5322 -0.0734492 35.5621 0.220348C37.0326 14.925 38.7863 17.7644 20.6149 17.7694C20.3135 17.7694 20.3946 18.2404 20.6944 18.2404Z" fill="#024A3E"/>
<path d="M0.269095 18.2404C18.4422 18.2355 17.6522 21.075 21.1845 35.7796C21.2557 36.0734 21.6962 36.0734 21.6664 35.7796C20.1959 21.075 18.4422 18.2355 36.6136 18.2306C36.915 18.2306 36.8338 17.7595 36.5341 17.7595C18.361 17.7644 19.1509 14.925 15.6187 0.220348C15.5475 -0.0734492 15.107 -0.0734492 15.1368 0.220348C16.6073 14.925 18.361 17.7644 0.189606 17.7694C-0.111788 17.7694 -0.0306428 18.2404 0.269095 18.2404Z" fill="#024A3E"/>
</svg>
