<svg width="596" height="300" viewBox="0 0 596 300" fill="none" xmlns="http://www.w3.org/2000/svg">
<path d="M333.631 106H345.391C355.291 106 358.531 115.9 358.531 126.28V126.34C358.531 136.72 356.071 148 347.491 148H333.631V147.4C333.631 147.4 336.511 147.28 336.811 143.8V110.2C336.511 106.78 333.631 106.6 333.631 106.6V106ZM341.251 146.92H345.871C354.691 146.92 354.151 127.96 354.151 127.96V127.9C354.151 106.36 345.151 107.02 345.151 107.02H341.251V146.92ZM388.96 127.24C388.96 127.24 389.92 148.42 374.86 148.42C359.8 148.42 360.82 127.24 360.82 127.24C360.82 127.24 359.92 105.58 374.86 105.58C389.68 105.58 388.96 127.24 388.96 127.24ZM374.86 147.34C384.82 147.34 384.34 127 384.34 127C384.34 127 384.34 106.66 374.86 106.66C364.78 106.66 365.44 127 365.44 127C365.44 127 364.6 147.34 374.86 147.34ZM429.826 106V106.6C429.826 106.6 426.646 106.72 426.646 110.8V143.2C426.646 147.22 429.826 147.4 429.826 147.4V148H418.966V147.4C418.966 147.4 422.146 147.28 422.146 143.2V122.08H410.686V143.2C410.686 147.22 413.866 147.4 413.866 147.4V148H403.006V147.4C403.006 147.4 406.186 147.28 406.186 143.2V110.8C406.186 106.78 403.006 106.6 403.006 106.6V106H413.866V106.6C413.866 106.6 410.686 106.72 410.686 111.1V121H422.146V110.8C422.146 106.78 418.966 106.6 418.966 106.6V106H429.826ZM430.545 148L430.665 147.4C430.665 147.4 433.965 146.74 434.625 142.18L441.285 111.82C441.825 108.52 440.265 107.26 439.425 106.84C439.005 106.66 438.765 106.6 438.765 106.6L438.645 106H449.445L449.565 106.6C449.565 106.6 446.565 107.2 447.585 111.82L454.485 142.18C455.505 146.74 458.865 147.4 458.865 147.4L458.985 148H448.425L448.305 147.4C448.305 147.4 451.365 146.74 450.285 142.18L448.545 133.6H437.805L436.005 142.18C435.285 146.74 438.405 147.4 438.405 147.4L438.285 148H430.545ZM438.165 132.4L448.125 132.46L442.785 109.96L438.165 132.4ZM454.17 110.2V106H458.73V110.02C458.73 114.64 455.31 116.92 454.41 117.4C456.81 115.36 458.43 110.2 454.17 110.2ZM468.53 119.92L476.75 125.98C487.49 133.18 484.79 148.54 470.81 148.54C467.09 148.54 464.27 146.44 462.47 144.34C462.41 144.34 462.41 144.28 462.35 144.22C462.17 144.04 462.05 143.98 461.93 143.98C461.03 143.98 460.91 148 460.91 148H460.43L460.37 131.62H461.33C461.33 131.62 461.21 147.4 470.81 147.4C474.89 147.4 478.55 144.82 478.55 138.22C478.55 132.34 474.59 130.54 472.25 128.86L466.25 124.36C458.09 118.96 460.01 105.7 471.95 105.7C475.73 105.7 478.37 107.8 480.05 109.84C480.23 110.08 480.41 110.2 480.59 110.2C481.49 110.2 481.61 106.18 481.61 106.18H482.09V122.62H481.19C481.19 122.62 481.37 106.84 471.95 106.84C468.59 106.84 465.71 110.02 465.71 113.98C465.71 117.22 467.27 118.96 468.53 119.92Z" fill="#062923"/>
<path d="M297.5 80.75C297.25 82 294.5 81.25 289.25 82.75C283 84.5 273.25 89.5 268.25 93.5C283.75 103.75 292 118.75 292 133.25C291.75 139.25 290.5 145 287.5 150.5C277 170 251.5 176 230.5 176C222.5 176 216 175.5 210.5 173.75C207.75 173 205.75 171.25 207 169C208 167.25 210 167.5 212 168.75C217.25 172 218.25 172.75 223.25 172.75C239 172.75 256.25 163.5 268 144.75C273 136.75 275 128 275 120C275 110 271.5 101 265.5 96C240.75 115 219.25 151 203 169.25C152.75 226 108.25 236 70.25 239.75C93 244 116.75 247 133.25 247C150.5 247 167 243.75 178.25 229.5C179.25 228.5 179.5 228 180 228.25C181 228.5 180.5 231.25 179.75 233.25C170.25 260.5 146.5 281 116.25 281C87.75 281 66.75 266.25 59 241.75C50.75 242.75 37.5 249.5 20.75 249.5C14.25 249.5 11 247.75 11 245C11 238.5 21.5 235.75 32.5 235.75C40.25 235.75 49.75 237.25 58.25 237.75C56.75 232 55.75 224.75 55.75 214.75C55.75 180.75 70.75 148.25 95.75 123.25C125.25 94 164.5 78.75 209.75 78.75C237 78.75 254.5 84.75 264 90.75C270 86.75 279.75 82.25 287.5 80.5C292 79.5 297.75 79 297.5 80.75ZM260.75 93C251.5 87.5 234.5 82.5 212.25 82.5C172.5 82.5 134.5 101.75 105.75 131C76.5 161 61 190.5 60 219C59.75 226 60.5 232.25 61.75 237.75C104.5 235 138.25 209 175.75 168.5C202.5 139.75 232.5 109.75 260.75 93ZM175.75 236.5C167 246 157 257 133.75 257C113.25 257 97.75 251.25 66 241.25C65 241 63.75 241 62.75 241.25C70.5 265 92.5 277 116.25 277C142.75 277 163.25 260.75 175.75 236.5Z" fill="#024A3E"/>
<path d="M234.5 221.4C234.5 221.4 236.4 256.7 206.9 256.7C177.3 256.7 179.2 221.4 179.2 221.4C179.2 221.4 177.5 185.3 206.9 185.3C235.9 185.3 234.5 221.4 234.5 221.4ZM206.9 254.9C226.3 254.9 225.4 221 225.4 221C225.4 221 225.4 187.1 206.9 187.1C187 187.1 188.3 221 188.3 221C188.3 221 186.7 254.9 206.9 254.9ZM280.813 203.5C280.813 203.5 281.713 221.7 263.613 221.7L253.813 221.6L261.813 224.3L276.413 247.5C281.113 254.8 285.613 255 285.613 255V256H271.113L252.013 221.6L251.913 246.3C252.013 254 258.213 255 258.213 255V256H237.013V255C237.613 254.9 242.613 253.8 243.213 247.6V193C242.613 187.3 237.013 187 237.013 187V186H259.513C275.813 186 280.513 196.1 280.813 203.5ZM259.713 220.1C273.313 220.1 272.513 203 272.513 203V202.8C272.513 187.7 258.313 187.7 258.313 187.7H251.913V220.1H259.713ZM292.395 186H312.995H321.795V206.7H320.795C320.795 206.7 320.795 187.8 312.095 187.8H310.895C309.095 188.8 306.795 191 306.795 195.7V246.3C306.795 253.9 312.995 255 312.995 255V256H303.295H302.195H292.395V255C292.395 255 298.695 253.9 298.695 246.3V195.7C298.695 191 296.295 188.8 294.495 187.8H293.295C284.595 187.8 284.595 206.7 284.595 206.7H283.595V186H292.395ZM324.317 186H361.917V206.7H360.917C360.917 206.7 360.917 187.8 352.317 187.8H339.317V211.1H348.717C354.017 211.1 354.017 197.6 354.017 197.6H355.117V226.4H354.017C354.017 226.4 354.617 212.9 348.817 212.9H339.317V246.3C339.317 254 345.517 255 345.517 255V256H324.317V255C324.317 255 330.617 254 330.617 246.3V195.7C330.617 187.7 324.317 187 324.317 187V186ZM418.777 221.4C418.777 221.4 420.677 256.7 391.177 256.7C361.577 256.7 363.477 221.4 363.477 221.4C363.477 221.4 361.777 185.3 391.177 185.3C420.177 185.3 418.777 221.4 418.777 221.4ZM391.177 254.9C410.577 254.9 409.677 221 409.677 221C409.677 221 409.677 187.1 391.177 187.1C371.277 187.1 372.577 221 372.577 221C372.577 221 370.977 254.9 391.177 254.9ZM453.693 235.3H454.693V256H417.093V255C417.093 255 423.293 254 423.293 246.3V195.7C423.293 188.1 417.093 187 417.093 187V186H438.193V187C438.193 187 432.093 188.6 432.093 194.9V254.2H444.993C453.693 254.2 453.693 235.3 453.693 235.3ZM478.427 186V187C478.427 187 472.227 188.1 472.227 195.7V246.3C472.227 254 478.427 255 478.427 255V256H457.227V255C457.227 255 463.527 254 463.527 246.3V195.7C463.527 188.1 457.227 187 457.227 187V186H478.427ZM532.352 221.4C532.352 221.4 534.252 256.7 504.752 256.7C475.152 256.7 477.052 221.4 477.052 221.4C477.052 221.4 475.352 185.3 504.752 185.3C533.752 185.3 532.352 221.4 532.352 221.4ZM504.752 254.9C524.152 254.9 523.252 221 523.252 221C523.252 221 523.252 187.1 504.752 187.1C484.852 187.1 486.152 221 486.152 221C486.152 221 484.552 254.9 504.752 254.9Z" fill="#024A3E"/>
</svg>
