<svg width="42" height="38" viewBox="0 0 42 38" fill="none" xmlns="http://www.w3.org/2000/svg">
<path d="M29.5826 7C26.2652 7 23.2217 8.34804 21 10.5233C18.7783 8.34804 15.7348 7 12.4174 7C5.56956 7 0 12.6066 0 19.5C0 26.3934 5.56956 32 12.4174 32C15.7348 32 18.7783 30.652 21 28.4767C23.2217 30.652 26.2652 32 29.5826 32C36.4609 32 42 26.3934 42 19.5C42 12.6066 36.4609 7 29.5826 7ZM21 20.5723C20.7565 22.4718 19.9348 24.1569 18.687 25.4743C17.1348 27.1593 14.8826 28.201 12.4174 28.201C7.63913 28.201 3.77391 24.31 3.77391 19.5C3.77391 15.7623 6.11739 12.6066 9.43478 11.3811C8.70435 12.4534 8.27826 13.7402 8.27826 15.1189C8.27826 18.7647 11.2 21.7059 14.8217 21.7059C17.5609 21.7059 19.8739 20.0208 20.8783 17.6311C20.9391 17.9069 21 18.1826 21.0609 18.4583C21.0913 18.7953 21.1217 19.163 21.1217 19.5306C21.1217 19.8983 21.0913 20.2659 21.0609 20.6029L21 20.5723ZM29.5826 28.201C27.1174 28.201 24.8652 27.1593 23.313 25.4743C24.287 23.6973 24.8348 21.6752 24.8348 19.5C24.8348 17.3248 24.287 15.3027 23.313 13.5257C24.1956 12.576 25.3217 11.8407 26.6 11.3811C25.8696 12.4534 25.4435 13.7402 25.4435 15.1189C25.4435 18.7647 28.3652 21.7059 31.987 21.7059C34.7261 21.7059 37.0696 20.0208 38.0435 17.6005C38.1652 18.2132 38.2565 18.8566 38.2565 19.5C38.2565 24.31 34.3913 28.201 29.613 28.201H29.5826Z" fill="url(#paint0_linear_183_910)"/>
<defs>
<linearGradient id="paint0_linear_183_910" x1="33.3717" y1="7.03064" x2="0.222343" y2="31.7436" gradientUnits="userSpaceOnUse">
<stop stop-color="#48C2A6"/>
<stop offset="1" stop-color="#E3FFC7"/>
</linearGradient>
</defs>
</svg>
