<svg width="91" height="42" viewBox="0 0 91 42" fill="none" xmlns="http://www.w3.org/2000/svg">
<path d="M48.3739 21.281C69.5763 21.2753 68.6547 24.5881 72.7758 41.7439C72.8589 42.0867 73.3728 42.0867 73.338 41.7439C71.6224 24.5881 69.5763 21.2753 90.7768 21.2695C91.1284 21.2695 91.0338 20.7199 90.6841 20.7199C69.4816 20.7257 70.4032 17.4129 66.2821 0.257078C66.1991 -0.0856928 65.6851 -0.0856928 65.7199 0.257078C67.4356 17.4129 69.4816 20.7257 48.2811 20.7314C47.9295 20.7314 48.0242 21.281 48.3739 21.281Z" fill="#024A3E"/>
<path d="M24.144 21.2811C45.3464 21.2753 44.4249 24.5881 48.5459 41.7439C48.629 42.0867 49.1429 42.0867 49.1082 41.7439C47.3925 24.5881 45.3464 21.2753 66.5469 21.2696C66.8986 21.2696 66.8039 20.72 66.4542 20.72C45.2518 20.7257 46.1734 17.4129 42.0523 0.257139C41.9692 -0.0856318 41.4553 -0.0856318 41.4901 0.257139C43.2057 17.4129 45.2518 20.7257 24.0513 20.7315C23.6996 20.7315 23.7943 21.2811 24.144 21.2811Z" fill="#024A3E"/>
<path d="M0.314007 21.2811C21.5164 21.2753 20.5948 24.5881 24.7159 41.7439C24.799 42.0867 25.3129 42.0867 25.2781 41.7439C23.5625 24.5881 21.5164 21.2753 42.7169 21.2696C43.0686 21.2696 42.9739 20.72 42.6242 20.72C21.4218 20.7257 22.3434 17.4129 18.2223 0.257139C18.1392 -0.0856318 17.6253 -0.0856318 17.66 0.257139C19.3757 17.4129 21.4218 20.7257 0.221268 20.7315C-0.130367 20.7315 -0.0356941 21.2811 0.314007 21.2811Z" fill="#024A3E"/>
</svg>
