<svg width="78" height="36" viewBox="0 0 78 36" fill="none" xmlns="http://www.w3.org/2000/svg">
<path d="M36.5341 18.2404C18.3611 18.2355 19.151 21.075 15.6187 35.7796C15.5475 36.0734 15.107 36.0734 15.1368 35.7796C16.6073 21.075 18.3611 18.2355 0.189657 18.2306C-0.111737 18.2306 -0.0305927 17.7595 0.269145 17.7595C18.4422 17.7644 17.6523 14.925 21.1846 0.220348C21.2558 -0.0734492 21.6963 -0.0734492 21.6665 0.220348C20.1959 14.925 18.4422 17.7644 36.6136 17.7694C36.915 17.7694 36.8339 18.2404 36.5341 18.2404Z" fill="#024A3E"/>
<path d="M57.3021 18.2404C39.129 18.2355 39.9189 21.075 36.3867 35.7796C36.3154 36.0734 35.8749 36.0734 35.9048 35.7796C37.3753 21.075 39.129 18.2355 20.9576 18.2306C20.6562 18.2306 20.7374 17.7595 21.0371 17.7595C39.2102 17.7644 38.4202 14.925 41.9525 0.220348C42.0237 -0.0734492 42.4642 -0.0734492 42.4344 0.220348C40.9639 14.925 39.2102 17.7644 57.3816 17.7694C57.683 17.7694 57.6018 18.2404 57.3021 18.2404Z" fill="#024A3E"/>
<path d="M77.7272 18.2404C59.5542 18.2355 60.3441 21.075 56.8118 35.7796C56.7406 36.0734 56.3001 36.0734 56.3299 35.7796C57.8005 21.075 59.5542 18.2355 41.3828 18.2306C41.0814 18.2306 41.1625 17.7595 41.4623 17.7595C59.6353 17.7644 58.8454 14.925 62.3777 0.220348C62.4489 -0.0734492 62.8894 -0.0734492 62.8596 0.220348C61.389 14.925 59.6353 17.7644 77.8067 17.7694C78.1081 17.7694 78.027 18.2404 77.7272 18.2404Z" fill="#024A3E"/>
</svg>
