<svg width="91" height="42" viewBox="0 0 91 42" fill="none" xmlns="http://www.w3.org/2000/svg">
<path d="M42.6242 21.281C21.4218 21.2753 22.3434 24.5881 18.2223 41.7439C18.1392 42.0867 17.6253 42.0867 17.66 41.7439C19.3757 24.5881 21.4218 21.2753 0.221272 21.2695C-0.130363 21.2695 -0.0356923 20.7199 0.31401 20.7199C21.5164 20.7257 20.5948 17.4129 24.7159 0.257078C24.799 -0.0856928 25.3129 -0.0856928 25.2782 0.257078C23.5625 17.4129 21.5164 20.7257 42.7169 20.7314C43.0686 20.7314 42.9739 21.281 42.6242 21.281Z" fill="#024A3E"/>
<path d="M66.854 21.2811C45.6516 21.2753 46.5732 24.5881 42.4521 41.7439C42.369 42.0867 41.8551 42.0867 41.8899 41.7439C43.6056 24.5881 45.6516 21.2753 24.4511 21.2696C24.0995 21.2696 24.1942 20.72 24.5439 20.72C45.7463 20.7257 44.8247 17.4129 48.9458 0.257139C49.0289 -0.0856318 49.5428 -0.0856318 49.508 0.257139C47.7923 17.4129 45.7463 20.7257 66.9468 20.7315C67.2984 20.7315 67.2037 21.2811 66.854 21.2811Z" fill="#024A3E"/>
<path d="M90.684 21.2811C69.4816 21.2753 70.4032 24.5881 66.2821 41.7439C66.199 42.0867 65.6851 42.0867 65.7199 41.7439C67.4355 24.5881 69.4816 21.2753 48.2811 21.2696C47.9295 21.2696 48.0241 20.72 48.3738 20.72C69.5762 20.7257 68.6546 17.4129 72.7757 0.257139C72.8588 -0.0856318 73.3727 -0.0856318 73.338 0.257139C71.6223 17.4129 69.5762 20.7257 90.7767 20.7315C91.1284 20.7315 91.0337 21.2811 90.684 21.2811Z" fill="#024A3E"/>
</svg>
