<svg width="31" height="30" viewBox="0 0 31 30" fill="none" xmlns="http://www.w3.org/2000/svg">
<path d="M22.576 14.3074C22.8079 14.6537 23.0391 15 23.1546 15.5767H19.4495C19.4495 15.4615 19.4495 15.2303 19.565 15C19.6806 14.7696 19.6806 14.6537 19.9125 14.4233C20.0281 14.1922 20.26 14.077 20.4911 13.9619C20.723 13.8467 21.0697 13.7307 21.4172 13.7307C21.8803 13.8459 22.3433 13.9619 22.5752 14.3074H22.576ZM11.9244 13.4996C12.1563 13.2685 12.3874 12.923 12.3874 12.4615C12.3874 12.2304 12.3874 12 12.2719 11.7689C12.1563 11.6537 12.04 11.4226 11.9244 11.4226C11.8088 11.3074 11.5769 11.3074 11.3458 11.1914H8.3356V13.8451H10.8827C11.2302 13.8451 11.5777 13.73 11.9244 13.4988V13.4996ZM10.9983 15.4615H8.3356V18.5767H10.9983C11.2302 18.5767 11.4614 18.5767 11.6933 18.4615C11.9252 18.4615 12.1563 18.3463 12.2719 18.2303C12.3874 18.1152 12.6194 17.9992 12.7349 17.7689C12.8505 17.5377 12.8505 17.3074 12.8505 17.0763C12.8505 16.4996 12.7349 16.0381 12.3874 15.807C12.04 15.5759 11.5769 15.4607 10.9983 15.4607V15.4615ZM30.1019 5.6537V24.3463C30.1019 27.4615 27.5547 30 24.429 30H5.6729C2.54714 30 0 27.4615 0 24.3463V5.6537C0 2.53852 2.54714 0 5.6729 0H24.429C27.5547 0 30.1019 2.53852 30.1019 5.6537ZM18.9872 11.077H23.6184V9.92296H18.9872V11.077ZM15.2821 17.3074C15.2821 16.6148 15.1665 16.0381 14.819 15.4615C14.4715 15 14.0085 14.6537 13.3135 14.4233C13.7766 14.1922 14.2396 13.8467 14.4715 13.5004C14.7035 13.1541 14.819 12.6926 14.819 12.116C14.819 11.5393 14.7035 11.193 14.5871 10.7315C14.3552 10.3852 14.1241 10.0389 13.8921 9.92374C13.5447 9.69261 13.1972 9.57743 12.7341 9.46226C12.1555 9.23113 11.6925 9.23113 11.1131 9.23113H5.7869V20.5393H11.3442C11.8073 20.5393 12.3859 20.4241 12.8497 20.3082C13.3135 20.1922 13.7758 19.9619 14.1233 19.7315C14.4708 19.5012 14.8182 19.1549 15.0494 18.6934C15.1649 18.3471 15.2813 17.8856 15.2813 17.3089L15.2821 17.3074ZM19.4503 16.9619H25.3551C25.3551 16.2693 25.3551 15.6926 25.2395 15.116C25.1239 14.5393 24.892 13.9619 24.5445 13.6156C24.1971 13.1541 23.734 12.8078 23.271 12.5774C22.6924 12.3463 22.113 12.116 21.4188 12.116C20.8402 12.116 20.2608 12.2311 19.6822 12.4623C19.2191 12.6934 18.7561 13.0389 18.293 13.3852C17.9456 13.7315 17.5981 14.193 17.4825 14.7696C17.2506 15.3463 17.135 15.9237 17.135 16.5004C17.135 17.077 17.2506 17.7696 17.4825 18.2311C17.7144 18.8078 17.9456 19.2693 18.293 19.6156C18.6405 19.9619 19.1036 20.3082 19.5666 20.5385C20.1452 20.7696 20.7246 20.8848 21.3032 20.8848C22.2293 20.8848 23.0398 20.6537 23.7348 20.1922C24.4297 19.7307 24.8928 19.0381 25.2403 18.1152H23.2717C23.1562 18.3463 23.0398 18.5767 22.6931 18.8078C22.3457 19.0389 21.9982 19.1541 21.5351 19.1541C20.9565 19.1541 20.3771 19.0389 20.0296 18.6926C19.6822 18.2311 19.451 17.6545 19.451 16.9619H19.4503Z" fill="white"/>
</svg>
