<svg width="31" height="30" viewBox="0 0 31 30" fill="none" xmlns="http://www.w3.org/2000/svg">
<path d="M30.1026 7.94143V22.0586C30.1026 26.4445 26.535 30 22.1343 30H18.9328C18.6291 29.9549 18.4768 29.4817 18.4768 28.5806V24.6608C18.4768 23.4445 18.1512 22.5434 17.4992 21.9574C19.4115 21.7317 20.9427 21.124 22.0944 20.1326C23.2462 19.1411 23.8224 17.384 23.8224 14.8611C23.8224 13.374 23.3438 12.09 22.388 11.0083C22.8659 9.8371 22.8222 8.55309 22.2576 7.15623C21.4752 6.8862 20.215 7.38191 18.4768 8.64336C17.347 8.32741 16.1734 8.17022 14.9568 8.17022C13.7403 8.17022 12.5886 8.32741 11.5017 8.64336C10.7193 8.10251 10.0134 7.70797 9.38326 7.46051C8.75313 7.21226 8.30806 7.1111 8.04726 7.15623H7.65606C7.13447 8.55309 7.09074 9.8371 7.52566 11.0083C6.56914 12.09 6.09127 13.374 6.09127 14.8611C6.09127 17.3389 6.67846 19.0851 7.85127 20.0991C9.02486 21.1123 10.5459 21.7317 12.4145 21.9574C11.9366 22.408 11.6539 23.0609 11.5672 23.9177C9.74166 24.7285 8.39473 24.3231 7.52566 22.7006C7.00407 21.7994 6.28726 21.3037 5.37447 21.2142C5.2878 21.2142 5.18941 21.2251 5.08088 21.2477C4.97234 21.2703 4.85287 21.3489 4.72247 21.4843C4.59208 21.6197 4.7662 21.822 5.24407 22.0928C5.89607 22.408 6.41766 23.106 6.80886 24.1877C6.8518 24.278 6.89553 24.3791 6.93848 24.492C6.9822 24.6048 7.12353 24.8188 7.36247 25.134C7.6014 25.4491 7.88406 25.6857 8.20967 25.8437C8.53606 26.0009 8.98113 26.148 9.54645 26.2826C10.111 26.418 10.763 26.3729 11.5017 26.148V28.5806C11.5017 29.4817 11.3283 29.9549 10.9801 30H7.9684C3.56762 30 0 26.4445 0 22.0586V7.94143C0 3.55555 3.56762 0 7.9684 0H22.1343C26.535 0 30.1026 3.55555 30.1026 7.94143Z" fill="#024A3E"/>
</svg>
