<svg width="30" height="30" viewBox="0 0 30 30" fill="none" xmlns="http://www.w3.org/2000/svg">
<path d="M21.6666 0C26.2687 0 30 3.73055 30 8.33342V21.6666C30 26.2687 26.2695 30 21.6666 30H8.33342C3.73132 30 0 26.2695 0 21.6666V8.33342C0 3.73055 3.73055 0 8.33342 0H21.6666ZM15 7.5C10.8578 7.5 7.5 10.8578 7.5 15C7.5 19.1422 10.8578 22.5 15 22.5C19.1422 22.5 22.5 19.1422 22.5 15C22.5 10.8578 19.1422 7.5 15 7.5ZM15 9.47033C18.0535 9.47033 20.5297 11.9457 20.5297 15C20.5297 18.0543 18.0543 20.5297 15 20.5297C11.9457 20.5297 9.47033 18.0543 9.47033 15C9.47033 11.9457 11.9457 9.47033 15 9.47033ZM22.7327 5.59971C21.8121 5.59971 21.0658 6.34597 21.0658 7.26655C21.0658 8.18712 21.8121 8.93339 22.7327 8.93339C23.6532 8.93339 24.3995 8.18712 24.3995 7.26655C24.3995 6.34597 23.6532 5.59971 22.7327 5.59971Z" fill="white"/>
</svg>
