<svg width="352" height="66" viewBox="0 0 352 66" fill="none" xmlns="http://www.w3.org/2000/svg">
<mask id="mask0_183_885" style="mask-type:alpha" maskUnits="userSpaceOnUse" x="0" y="0" width="352" height="66">
<rect width="352" height="66" fill="#D9D9D9"/>
</mask>
<g mask="url(#mask0_183_885)">
<path d="M0.351562 61.8984L2.34375 1.625L11.0156 1.78125L9.57031 38.8516L29.9609 18.3438L35.9766 23.1484L21.4062 37.5625L38.2031 59.3984L31.3281 64.4375L15.625 43.3047L9.14062 49.6328L8.75 61.3906L0.351562 61.8984ZM55.625 8.92969C55.625 10.4401 55.0651 11.7422 53.9453 12.8359C52.8516 13.9036 51.5365 14.4375 50 14.4375C48.4896 14.4375 47.1875 13.9036 46.0938 12.8359C45.026 11.7422 44.4922 10.4401 44.4922 8.92969C44.4922 7.39323 45.026 6.07812 46.0938 4.98438C47.1875 3.86458 48.4896 3.30469 50 3.30469C51.5365 3.30469 52.8516 3.86458 53.9453 4.98438C55.0651 6.07812 55.625 7.39323 55.625 8.92969ZM45.7031 22.9922L53.7891 22.6797L53.3984 41.4297C53.2682 46.5859 53.1901 50.6354 53.1641 53.5781C53.0859 57.1719 53.0469 59.9974 53.0469 62.0547H45.0391C45.0651 60.6484 45.0911 59.112 45.1172 57.4453C45.1693 55.7526 45.2083 53.9427 45.2344 52.0156C45.2865 48.6562 45.3646 44.5807 45.4688 39.7891L45.7031 22.9922ZM64.8828 20.2969L73.0469 19.3984L73.2031 30.7656C74.375 29.2812 75.612 27.8229 76.9141 26.3906C78.2161 24.9583 79.6484 23.7734 81.2109 22.8359C82.7995 21.8724 84.5833 21.3906 86.5625 21.3906C88.8802 21.3906 90.9115 22.1589 92.6562 23.6953C94.401 25.2057 95.4167 27.4323 95.7031 30.375C96.8229 28.9688 98.0208 27.5755 99.2969 26.1953C100.573 24.8151 101.979 23.6693 103.516 22.7578C105.052 21.8464 106.771 21.3906 108.672 21.3906C111.224 21.3906 113.372 22.25 115.117 23.9688C116.888 25.6875 117.826 28.2135 117.93 31.5469C118.008 32.5104 118.086 33.5911 118.164 34.7891C118.242 35.9609 118.307 37.276 118.359 38.7344C118.49 41.2083 118.594 44.3594 118.672 48.1875C118.776 51.9896 118.828 56.5599 118.828 61.8984L110.664 62.2891C110.664 57.5495 110.651 53.5 110.625 50.1406C110.599 46.7552 110.573 43.9557 110.547 41.7422L110.43 35.3359C110.273 31.1172 109.128 29.0078 106.992 29.0078C106.029 29.0078 105.013 29.4505 103.945 30.3359C102.878 31.2214 101.927 32.1979 101.094 33.2656C100.755 33.6823 100.43 34.099 100.117 34.5156C99.8307 34.9062 99.5443 35.3099 99.2578 35.7266C98.6849 36.5599 98.138 37.3672 97.6172 38.1484C97.0964 38.9297 96.6406 39.6198 96.25 40.2188C96.3021 41.3646 96.3542 42.6276 96.4062 44.0078C96.4844 45.388 96.5365 46.9505 96.5625 48.6953C96.6146 50.4401 96.6406 52.3932 96.6406 54.5547C96.6406 56.7161 96.6406 59.1641 96.6406 61.8984L89.0625 62.2891C89.0625 57.5495 89.0104 53.5 88.9062 50.1406C88.8281 46.7552 88.737 43.9557 88.6328 41.7422C88.5807 40.4401 88.5156 39.2552 88.4375 38.1875C88.3854 37.1198 88.3203 36.1693 88.2422 35.3359C88.0859 31.1172 86.9401 29.0078 84.8047 29.0078C84.1536 29.0078 83.4635 29.2292 82.7344 29.6719C81.3021 30.5833 79.8958 31.9505 78.5156 33.7734C78.1771 34.2161 77.8385 34.6719 77.5 35.1406C77.1875 35.6094 76.875 36.0651 76.5625 36.5078C76.0677 37.237 75.4948 38.0833 74.8438 39.0469C74.2188 40.0104 73.724 40.7656 73.3594 41.3125L73.7109 61.8984L65.9375 62.2891L64.8828 20.2969ZM190.859 24.4375L191.172 4.4375L198.516 4.98438L198.359 62.6016H190.352L190.43 57.6406C188.971 58.9948 187.396 60.0755 185.703 60.8828C184.036 61.6901 182.448 62.2891 180.938 62.6797C179.297 63.0964 177.669 63.3307 176.055 63.3828C169.909 63.3828 164.831 61.3385 160.82 57.25C158.893 55.2969 157.37 52.9141 156.25 50.1016C155.156 47.2891 154.609 44.125 154.609 40.6094C154.609 37.0677 155.221 33.9167 156.445 31.1562C157.695 28.3698 159.31 26.026 161.289 24.125C163.294 22.224 165.547 20.7786 168.047 19.7891C170.547 18.7734 173.073 18.2656 175.625 18.2656C177.37 18.2917 179.141 18.526 180.938 18.9688C182.474 19.3333 184.128 19.9453 185.898 20.8047C187.669 21.638 189.323 22.849 190.859 24.4375ZM176.055 56.1953C179.336 56.1953 182.331 55.1927 185.039 53.1875C187.747 51.2083 189.596 48.6172 190.586 45.4141L190.664 37.0938C190.195 35.4271 189.466 33.9036 188.477 32.5234C187.487 31.1172 186.328 29.9193 185 28.9297C182.214 26.8464 179.154 25.8047 175.82 25.8047C173.893 25.8047 172.122 26.2083 170.508 27.0156C168.893 27.7969 167.5 28.8776 166.328 30.2578C165.156 31.638 164.245 33.2656 163.594 35.1406C162.943 37.0156 162.617 39.0469 162.617 41.2344C162.617 43.4219 162.943 45.4271 163.594 47.25C164.271 49.0729 165.208 50.6484 166.406 51.9766C167.578 53.3047 168.984 54.3464 170.625 55.1016C172.292 55.8307 174.102 56.1953 176.055 56.1953ZM249.336 42.0547C249.336 45.3359 248.789 48.3698 247.695 51.1562C246.602 53.9427 245.104 56.3646 243.203 58.4219C241.302 60.4792 239.076 62.0807 236.523 63.2266C233.971 64.3984 231.25 64.9844 228.359 64.9844C222.448 64.9844 217.539 62.875 213.633 58.6562C211.732 56.651 210.234 54.2422 209.141 51.4297C208.047 48.6172 207.5 45.4922 207.5 42.0547C207.5 38.5911 208.047 35.4531 209.141 32.6406C210.234 29.8021 211.732 27.3802 213.633 25.375C215.508 23.3698 217.708 21.8203 220.234 20.7266C222.76 19.6328 225.469 19.0859 228.359 19.0859C231.25 19.0859 233.971 19.6719 236.523 20.8438C239.076 21.9896 241.302 23.5781 243.203 25.6094C245.104 27.6667 246.602 30.1016 247.695 32.9141C248.789 35.7005 249.336 38.7474 249.336 42.0547ZM241.094 41.9766C241.094 40.1016 240.859 38.2005 240.391 36.2734C239.922 34.3464 239.18 32.6276 238.164 31.1172C237.148 29.5807 235.833 28.3438 234.219 27.4062C232.604 26.4427 230.651 25.9609 228.359 25.9609C226.146 25.9609 224.245 26.4427 222.656 27.4062C221.068 28.3438 219.766 29.5807 218.75 31.1172C217.734 32.6276 216.992 34.3464 216.523 36.2734C216.055 38.2005 215.82 40.1016 215.82 41.9766C215.82 43.8516 216.068 45.7396 216.562 47.6406C217.083 49.5156 217.865 51.2214 218.906 52.7578C219.948 54.2682 221.25 55.5182 222.812 56.5078C224.401 57.4714 226.25 57.9531 228.359 57.9531C230.573 57.9531 232.474 57.4714 234.062 56.5078C235.677 55.5182 237.005 54.2682 238.047 52.7578C239.089 51.2214 239.857 49.5156 240.352 47.6406C240.846 45.7396 241.094 43.8516 241.094 41.9766ZM258.594 62.9922L257.93 2.75781L266.914 2.44531L266.68 26.1953C268.112 24.6328 269.635 23.4089 271.25 22.5234C272.865 21.612 274.375 20.9219 275.781 20.4531C277.396 19.9323 278.997 19.5807 280.586 19.3984C286.471 19.3984 291.185 21.4167 294.727 25.4531C296.445 27.4062 297.799 29.7891 298.789 32.6016C299.805 35.388 300.378 38.5391 300.508 42.0547C300.508 43.9036 300.482 45.7917 300.43 47.7188C300.404 49.6458 300.326 51.5339 300.195 53.3828C300.039 55.2318 299.831 56.9896 299.57 58.6562C299.336 60.3229 299.01 61.8203 298.594 63.1484L289.688 62.5234C290.443 60.0234 290.977 57.5885 291.289 55.2188C291.628 52.849 291.862 50.7266 291.992 48.8516C292.096 46.6641 292.135 44.5807 292.109 42.6016C291.979 39.8151 291.497 37.4453 290.664 35.4922C289.857 33.5391 288.841 31.9375 287.617 30.6875C286.419 29.4635 285.078 28.5781 283.594 28.0312C282.135 27.4583 280.703 27.1719 279.297 27.1719C277.839 27.276 276.341 27.7057 274.805 28.4609C273.503 29.0859 272.109 30.0625 270.625 31.3906C269.141 32.6927 267.76 34.5417 266.484 36.9375L266.25 62.8359L258.594 62.9922ZM348.672 64.75L341.016 63.4609L341.562 57.9531C338.385 59.9844 335.26 61.4557 332.188 62.3672C329.141 63.2786 326.289 63.7344 323.633 63.7344C321.758 63.7344 319.935 63.487 318.164 62.9922C316.419 62.5234 314.883 61.7812 313.555 60.7656C312.201 59.776 311.107 58.513 310.273 56.9766C309.466 55.4141 309.062 53.5781 309.062 51.4688C309.062 49.3594 309.375 47.4714 310 45.8047C310.625 44.138 311.484 42.6667 312.578 41.3906C313.672 40.1146 314.961 39.0208 316.445 38.1094C317.93 37.1979 319.531 36.4557 321.25 35.8828C322.943 35.3099 324.727 34.8932 326.602 34.6328C328.477 34.3464 330.339 34.2031 332.188 34.2031C333.906 34.2031 335.508 34.2682 336.992 34.3984C338.477 34.5286 339.792 34.6979 340.938 34.9062C340.469 33.0573 339.831 31.3255 339.023 29.7109C338.242 28.0964 337.201 26.7943 335.898 25.8047C334.622 24.7891 332.969 24.2812 330.938 24.2812C329.922 24.2812 328.763 24.4375 327.461 24.75C326.159 25.0365 324.727 25.5703 323.164 26.3516C321.602 27.1328 319.896 28.2135 318.047 29.5938C316.198 30.9479 314.219 32.6927 312.109 34.8281L307.383 29.0859C309.883 26.7422 312.279 24.8281 314.57 23.3438C316.862 21.8594 319.023 20.6875 321.055 19.8281C323.06 18.9948 324.922 18.4219 326.641 18.1094C328.385 17.7969 329.948 17.6406 331.328 17.6406C333.75 17.6406 335.885 18.0443 337.734 18.8516C339.609 19.6589 341.263 20.7786 342.695 22.2109C344.128 23.6172 345.326 25.2839 346.289 27.2109C347.227 29.0599 348.021 31.1172 348.672 33.3828C349.297 35.5964 349.74 37.888 350 40.2578C350.286 42.6276 350.43 44.9844 350.43 47.3281C350.43 49.8281 350.286 52.5104 350 55.375C349.714 58.2396 349.271 61.3646 348.672 64.75ZM342.109 49.2422C342.161 47.9401 342.201 46.651 342.227 45.375C342.253 44.099 342.188 42.7708 342.031 41.3906C340.755 41 339.414 40.6875 338.008 40.4531C336.602 40.2188 335.195 40.1016 333.789 40.1016C331.445 40.1016 329.167 40.375 326.953 40.9219C324.766 41.4688 322.878 42.263 321.289 43.3047C319.701 44.3464 318.503 45.6224 317.695 47.1328C316.914 48.6432 316.758 50.362 317.227 52.2891C317.591 53.8516 318.294 54.9453 319.336 55.5703C320.404 56.1953 321.68 56.5078 323.164 56.5078C325.091 56.5078 327.253 56.1042 329.648 55.2969C332.044 54.4635 334.349 53.474 336.562 52.3281C338.802 51.1823 340.651 50.1536 342.109 49.2422Z" fill="#024A3E"/>
</g>
</svg>
