<svg width="42" height="38" viewBox="0 0 42 38" fill="none" xmlns="http://www.w3.org/2000/svg">
<path d="M24.8852 6.20201C25.3779 5.15574 26.626 4.70747 27.6723 5.20006C28.7184 5.69284 29.1668 6.93997 28.6743 7.98619L17.1294 32.5096C16.6368 33.5559 15.3896 34.0049 14.3432 33.5126C13.2969 33.02 12.8479 31.7728 13.3403 30.7264L24.8852 6.20201ZM8.47996 9.05846C9.30581 8.2621 10.6328 8.2621 11.4292 9.05846C11.842 9.47136 12.0483 10.002 12.0483 10.5624C12.0483 11.0932 11.8421 11.6241 11.4292 12.037L5.20555 18.2899C5.20407 18.2939 5.11835 18.5263 5.20555 18.6434L11.4292 24.8671H11.3999C11.8128 25.28 12.019 25.8115 12.019 26.3719C12.0189 26.9027 11.8127 27.4337 11.3999 27.8465C10.6037 28.6722 9.27651 28.672 8.45067 27.8465L2.02 21.4169L0.663556 20.0594C-0.221137 19.1746 -0.221233 17.7587 0.663556 16.8739L2.05027 15.4881L8.47996 9.05846ZM30.5708 9.05846C31.3671 8.2621 32.6951 8.2621 33.521 9.05846L41.3364 16.8739C42.2212 17.7587 42.2212 19.1746 41.3364 20.0594L39.98 21.4169L33.5503 27.8465C32.7246 28.6722 31.3974 28.672 30.6011 27.8465C30.1883 27.4337 29.9811 26.9027 29.9809 26.3719C29.9809 25.8115 30.1881 25.28 30.6011 24.8671H30.5708L36.7944 18.6434C36.8826 18.5254 36.7944 18.2899 36.7944 18.2899L30.5708 12.037C30.158 11.6241 29.9516 11.1227 29.9516 10.5624C29.9516 10.0021 30.1581 9.47133 30.5708 9.05846Z" fill="url(#paint0_linear_183_902)"/>
<defs>
<linearGradient id="paint0_linear_183_902" x1="37.9861" y1="17.8159" x2="12.008" y2="43.7945" gradientUnits="userSpaceOnUse">
<stop stop-color="#48C2A6"/>
<stop offset="1" stop-color="#E3FFC7"/>
</linearGradient>
</defs>
</svg>
