<svg width="18" height="18" viewBox="0 0 18 18" fill="none" xmlns="http://www.w3.org/2000/svg">
<path d="M16.5823 12.5303C16.0425 12.1932 15.2937 11.8795 14.4749 11.6464C13.6639 11.4154 12.866 11.2883 12.2281 11.2883C11.3649 11.2883 10.8571 11.5215 10.7168 11.9873C10.7163 11.9885 10.6618 12.1781 10.5927 12.4053C10.5893 12.4175 10.5854 12.4317 10.5825 12.446L10.4306 12.963C10.2566 12.9144 10.0997 12.8221 9.97263 12.6913L5.39784 8.01639C5.21512 7.82914 5.11768 7.57947 5.11832 7.31676C5.14964 7.30773 5.18163 7.2983 5.21468 7.28844C5.38461 7.30646 5.53965 7.27627 5.65199 7.21108L6.31978 6.84897C6.49889 6.75068 6.64791 6.66951 6.66328 6.66072C6.68015 6.6538 6.69677 6.64584 6.71275 6.63701C7.59719 6.15228 6.99546 4.3543 6.21129 2.96195C5.97992 2.55086 4.76992 0.5 3.6857 0.5C3.54967 0.5 3.42281 0.531059 3.3083 0.592273C3.30211 0.595616 3.29592 0.599193 3.28994 0.602737L2.9224 0.802762C2.90958 0.809248 2.8951 0.81784 2.88102 0.826666C2.33668 1.12104 1.94181 1.43804 1.52242 1.91709C1.2495 2.22861 1.02561 2.56638 0.856972 2.92093C0.51432 3.64045 0.414326 4.41575 0.574432 5.10846C0.796826 7.19246 2.47717 9.97375 5.19016 12.7471C7.74003 15.354 10.7172 17.1587 12.9602 17.4568C13.1794 17.4858 13.3824 17.5 13.5802 17.5C14.2621 17.5 14.8672 17.3247 15.4301 16.9633C16.3085 16.4001 16.8927 15.6047 17.3221 14.3891C17.3285 14.3719 17.3354 14.3497 17.3413 14.3266L17.4044 14.1132C17.4321 14.0205 17.4521 13.9522 17.453 13.9476C17.4586 13.9333 17.4637 13.919 17.468 13.9044C17.6041 13.444 17.306 12.9815 16.5823 12.5303Z" fill="#35C787"/>
</svg>
